<?xml version="1.0" encoding="UTF-8"?>
<svg width="70px" height="71px" viewBox="0 0 70 71" version="1.1" xmlns="http://www.w3.org/2000/svg" xmlns:xlink="http://www.w3.org/1999/xlink">
    <!-- Generator: Sketch 53.1 (72631) - https://sketchapp.com -->
    <title>factory-logo</title>
    <desc>Created with Sketch.</desc>
    <g id="Page-1" stroke="none" stroke-width="1" fill="none" fill-rule="evenodd">
        <g id="small" transform="translate(-30.000000, 0.000000)">
            <g id="factory-logo" transform="translate(30.000000, 0.000000)">
                <polygon id="Fill-1" fill="#E26159" points="0 70.7303193 69.9575214 70.7303193 69.9575214 0 0 0"></polygon>
                <g id="Group-13" transform="translate(18.235897, 28.573025)" fill="#FFFFFE">
                    <path d="M17.6661453,2.21508067 L19.0894786,2.21508067 L19.0894786,3.68460168 L17.6661453,3.68460168 L17.6661453,7.30977815 C17.6661453,7.97383697 17.8300769,8.13970252 18.4875983,8.13970252 C18.692812,8.13970252 18.884265,8.12597983 19.0894786,8.08481176 L19.0894786,9.62055966 C18.7610171,9.67604706 18.3368291,9.68976975 17.9533248,9.68976975 C16.7627265,9.68976975 15.7222991,9.41292941 15.7222991,7.98755966 L15.7222991,3.68460168 L14.6507607,3.68460168 L14.6507607,2.21508067 L15.7222991,2.21508067 L15.7222991,0.0886605042 L17.6661453,0.0886605042 L17.6661453,2.21508067 Z" id="Fill-3"></path>
                    <path d="M22.5684786,2.08537143 C24.7995043,2.08537143 26.2365983,3.57995126 26.2365983,5.86328739 C26.2365983,8.13290084 24.7995043,9.62748067 22.5684786,9.62748067 C20.3512137,9.62748067 18.9135214,8.13290084 18.9135214,5.86328739 C18.9135214,3.57995126 20.3512137,2.08537143 22.5684786,2.08537143 M22.5684786,8.14662353 C23.8960855,8.14662353 24.2927521,6.99809412 24.2927521,5.86328739 C24.2927521,4.71475798 23.8960855,3.56622857 22.5684786,3.56622857 C21.2546325,3.56622857 20.8573675,4.71475798 20.8573675,5.86328739 C20.8573675,6.99809412 21.2546325,8.14662353 22.5684786,8.14662353" id="Fill-5"></path>
                    <path d="M35.0288974,10.3074697 C34.6047094,11.4559992 33.9340256,11.9267471 32.5926581,11.9267471 C32.1953932,11.9267471 31.7987265,11.898705 31.4020598,11.857537 L31.4020598,10.2382597 C31.7712051,10.2663017 32.1547094,10.3217891 32.5376154,10.3074697 C33.2082991,10.2382597 33.4272735,9.53243613 33.2082991,8.96503277 L30.7176154,2.21167983 L32.7978718,2.21167983 L34.3994957,7.15244454 L34.4264188,7.15244454 L35.9735983,2.21167983 L37.9856496,2.21167983 L35.0288974,10.3074697 Z" id="Fill-7"></path>
                    <path d="M12.7706923,4.79786975 C12.6474444,3.99539076 12.1406923,3.56640756 11.3335983,3.56640756 C10.0879573,3.56640756 9.67752991,4.83903782 9.67752991,5.8915084 C9.67752991,6.9147437 10.0741966,8.14680252 11.2923162,8.14680252 C12.195735,8.14680252 12.7156496,7.56567647 12.8388974,6.69398739 L14.7139402,6.69398739 C14.4680427,8.5895084 13.167359,9.62765966 11.3060769,9.62765966 C9.17077778,9.62765966 7.73368376,8.10563445 7.73368376,5.96012185 C7.73368376,3.73227311 9.04752991,2.08555042 11.347359,2.08555042 C13.017188,2.08555042 14.5500085,2.97096218 14.6732564,4.79786975 L12.7706923,4.79786975 Z" id="Fill-9"></path>
                    <path d="M0.791478632,4.47962269 C0.900965812,2.63899244 2.52951282,2.08531176 4.11737607,2.08531176 C5.52754701,2.08531176 7.22429915,2.40391681 7.22429915,4.11984958 L7.22429915,7.84227815 C7.22429915,8.49261429 7.32481197,9.20858067 7.50310256,9.4991437 L5.52036752,9.4991437 C5.4515641,9.27779076 5.37677778,8.97708487 5.36301709,8.74200924 C4.74737607,9.39234538 3.84395726,9.62742101 2.98122222,9.62742101 C1.64045299,9.62742101 0.572504274,8.9496395 0.572504274,7.48250504 C0.572504274,5.86322773 1.77686325,5.47600924 2.98122222,5.30954706 C4.1724188,5.12995882 5.28105128,5.17172353 5.28105128,4.3686479 C5.28105128,3.52500084 4.70609402,3.40030336 4.02164957,3.40030336 C3.28276068,3.40030336 2.80352991,3.70458908 2.73532479,4.47962269 L0.791478632,4.47962269 Z M5.28105128,5.93243782 C4.95258974,6.22300084 4.2681453,6.23672353 3.66566667,6.34769832 C3.06378632,6.4723958 2.51635043,6.68002605 2.51635043,7.39957227 C2.51635043,8.13284118 3.07694872,8.31302605 3.70694872,8.31302605 C5.22600855,8.31302605 5.28105128,7.09528655 5.28105128,6.66570672 L5.28105128,5.93243782 Z" id="Fill-11"></path>
                </g>
                <polygon id="Fill-14" fill="#FFFFFE" points="20.2243162 28.3624714 20.2243162 30.195942 15.8238889 30.195942 15.8214957 32.2710513 18.5502991 32.2710513 18.5502991 33.9678916 15.8059402 33.9678916 15.803547 38.0715723 13.7609829 38.0715723 13.7579915 28.3624714"></polygon>
                <path d="M48.6563419,30.7895378 C47.7313846,30.9172185 47.0888205,31.5311597 46.7812991,32.3085798 L46.7537778,32.3085798 L46.7537778,30.7895378 L44.9062564,30.7895378 L44.9062564,38.0697227 L46.8495043,38.0697227 L46.8495043,34.9099244 C46.8495043,33.6838319 47.3173675,32.6677563 48.6563419,32.6158487 L48.6563419,30.7895378 Z" id="Fill-15" fill="#FFFFFE"></path>
                <polygon id="Fill-17" fill="#FFFFFE" points="36.3190513 42.345116 35.6543504 41.1721244 35.2319573 41.6733008 35.2319573 42.345116 34.7850342 42.345116 34.7850342 39.8630992 35.2319573 39.8630992 35.2319573 41.0080487 36.2119573 39.8630992 36.7552051 39.8630992 35.9660598 40.8010151 36.845547 42.345116"></polygon>
                <path d="M37.1777778,40.2725126 L37.9537778,40.2725126 L37.9537778,39.8208571 L37.1777778,39.8208571 L37.1777778,40.2725126 Z M37.2017778,42.3452353 L37.9357778,42.3452353 L37.9357778,40.5248908 L37.2017778,40.5248908 L37.2017778,42.3452353 Z" id="Fill-18" fill="#FFFFFE"></path>
                <g id="Group-29" transform="translate(37.979487, 39.312521)" fill="#FFFFFE">
                    <path d="M0.912273504,3.05711681 C0.548512821,3.05711681 0.36842735,2.8471 0.36842735,2.49687311 L0.36842735,1.57267983 L0.039965812,1.57267983 L0.039965812,1.21231008 L0.36842735,1.21231008 L0.36842735,0.749915126 L0.801589744,0.641326891 L0.801589744,1.21231008 L1.25509402,1.21231008 L1.25509402,1.57267983 L0.801589744,1.57267983 L0.801589744,2.45868824 C0.801589744,2.59830168 0.863811966,2.65796555 1.00261538,2.65796555 C1.09235897,2.65796555 1.16475214,2.65438571 1.28261538,2.64066303 L1.28261538,3.00819244 C1.16176068,3.03981429 1.04030769,3.05711681 0.912273504,3.05711681" id="Fill-19"></path>
                    <path d="M3.00018803,2.78409496 C2.87574359,2.94160756 2.65736752,3.07107815 2.38394872,3.07107815 C2.11052991,3.07107815 1.88198291,2.93802773 1.75694017,2.78409496 C1.62232479,2.61285966 1.55950427,2.3849437 1.55950427,2.11884286 C1.55950427,1.85274202 1.62232479,1.62542269 1.75694017,1.45359076 C1.88198291,1.29965798 2.11052991,1.16660756 2.38394872,1.16660756 C2.65736752,1.16660756 2.87574359,1.29607815 3.00018803,1.45359076 C3.08335043,1.56217899 3.13181197,1.70596891 3.13839316,1.84916218 L2.71300855,1.84916218 C2.7094188,1.78293529 2.68847863,1.72685126 2.66095726,1.68150672 C2.60890598,1.6009605 2.51557265,1.54487647 2.38394872,1.54487647 C2.26608547,1.54487647 2.17933333,1.59380084 2.12070085,1.65704454 C2.01659829,1.7721958 1.99924786,1.94760756 1.99924786,2.11884286 C1.99924786,2.29067479 2.01659829,2.46191008 2.12070085,2.57765798 C2.17933333,2.64030504 2.26608547,2.69280924 2.38394872,2.69280924 C2.51557265,2.69280924 2.60890598,2.63732185 2.66095726,2.55677563 C2.68847863,2.51083445 2.7094188,2.45475042 2.71300855,2.38852353 L3.13839316,2.38852353 C3.13181197,2.53231345 3.08335043,2.67550672 3.00018803,2.78409496" id="Fill-21"></path>
                    <path d="M4.67611966,3.03259496 L4.67611966,1.90912437 C4.67611966,1.69910756 4.60671795,1.56904034 4.37817094,1.56904034 C4.11851282,1.56904034 4.00782906,1.8494605 4.00782906,2.0732 L4.00782906,3.03259496 L3.57526496,3.03259496 L3.57526496,0.505233613 L4.00782906,0.505233613 L4.00782906,1.40496471 C4.11193162,1.25103193 4.31235897,1.16690588 4.49962393,1.16690588 C4.8837265,1.16690588 5.10868376,1.44314958 5.10868376,1.81783866 L5.10868376,3.03259496 L4.67611966,3.03259496 Z" id="Fill-23"></path>
                    <path d="M7.21065812,2.25893361 L6.00570085,2.25893361 C6.00211111,2.3991437 6.05057265,2.53219412 6.13732479,2.61632017 C6.19954701,2.67538739 6.28629915,2.7278916 6.40416239,2.7278916 C6.52860684,2.7278916 6.60458974,2.70342941 6.66681197,2.64078235 C6.70510256,2.60200084 6.73621368,2.55307647 6.7535641,2.48625294 L7.16937607,2.48625294 C7.15860684,2.59484118 7.08621368,2.73863109 7.01681197,2.82275714 C6.86424786,3.00473193 6.6392906,3.07811849 6.41074359,3.07811849 C6.16484615,3.07811849 5.98476068,2.99041261 5.84296581,2.85378235 C5.66288034,2.67896723 5.56595726,2.42360588 5.56595726,2.12588319 C5.56595726,1.83532017 5.6527094,1.57637899 5.82561538,1.39798403 C5.96082906,1.25777395 6.15467521,1.16648824 6.40057265,1.16648824 C6.66681197,1.16648824 6.90971795,1.27507647 7.05809402,1.50299244 C7.18971795,1.70226975 7.22082906,1.90870672 7.21424786,2.13662269 C7.21424786,2.13662269 7.21065812,2.2201521 7.21065812,2.25893361 M6.67040171,1.62172353 C6.61176923,1.55907647 6.52142735,1.51671513 6.39698291,1.51671513 C6.26535897,1.51671513 6.15826496,1.57279916 6.09544444,1.65692521 C6.03322222,1.73747143 6.00570085,1.82159748 6.00211111,1.94032857 L6.78108547,1.94032857 C6.77809402,1.80369832 6.73980342,1.69868992 6.67040171,1.62172353" id="Fill-25"></path>
                    <path d="M8.78966667,3.03259496 L8.78966667,1.91568739 C8.78966667,1.70209076 8.72026496,1.57262017 8.49171795,1.57262017 C8.33975214,1.57262017 8.23923932,1.67106555 8.18000855,1.80411597 C8.11778632,1.94730924 8.12137607,2.1364437 8.12137607,2.29037647 L8.12137607,3.03259496 L7.68881197,3.03259496 L7.68881197,1.21225042 L8.05197436,1.21225042 L8.08308547,1.44672941 C8.19077778,1.25401513 8.4055641,1.16690588 8.61317094,1.16690588 C8.9972735,1.16690588 9.22223077,1.43956975 9.22223077,1.81783866 L9.22223077,3.03259496 L8.78966667,3.03259496 Z" id="Fill-27"></path>
                </g>
            </g>
        </g>
    </g>
</svg>