<?xml version="1.0" encoding="UTF-8"?>
<svg width="117px" height="119px" viewBox="0 0 117 119" version="1.1" xmlns="http://www.w3.org/2000/svg" xmlns:xlink="http://www.w3.org/1999/xlink">
    <!-- Generator: Sketch 53.1 (72631) - https://sketchapp.com -->
    <title>factory-logo-inverted</title>
    <desc>Created with Sketch.</desc>
    <g id="Page-1" stroke="none" stroke-width="1" fill="none" fill-rule="evenodd">
        <g id="medium" transform="translate(-50.000000, 0.000000)">
            <g id="factory-logo-inverted" transform="translate(50.000000, 0.000000)">
                <polygon id="Fill-1" fill="#FFFFFF" points="0 118.548 116.929 118.548 116.929 0 0 0"></polygon>
                <g id="Group-13" transform="translate(30.480000, 47.890000)" fill="#E26159">
                    <path d="M29.5277,3.7126 L31.9067,3.7126 L31.9067,6.1756 L29.5277,6.1756 L29.5277,12.2516 C29.5277,13.3646 29.8017,13.6426 30.9007,13.6426 C31.2437,13.6426 31.5637,13.6196 31.9067,13.5506 L31.9067,16.1246 C31.3577,16.2176 30.6487,16.2406 30.0077,16.2406 C28.0177,16.2406 26.2787,15.7766 26.2787,13.3876 L26.2787,6.1756 L24.4877,6.1756 L24.4877,3.7126 L26.2787,3.7126 L26.2787,0.1486 L29.5277,0.1486 L29.5277,3.7126 Z" id="Fill-3"></path>
                    <path d="M37.7216,3.4952 C41.4506,3.4952 43.8526,6.0002 43.8526,9.8272 C43.8526,13.6312 41.4506,16.1362 37.7216,16.1362 C34.0156,16.1362 31.6126,13.6312 31.6126,9.8272 C31.6126,6.0002 34.0156,3.4952 37.7216,3.4952 M37.7216,13.6542 C39.9406,13.6542 40.6036,11.7292 40.6036,9.8272 C40.6036,7.9022 39.9406,5.9772 37.7216,5.9772 C35.5256,5.9772 34.8616,7.9022 34.8616,9.8272 C34.8616,11.7292 35.5256,13.6542 37.7216,13.6542" id="Fill-5"></path>
                    <path d="M58.5483,17.2759 C57.8393,19.2009 56.7183,19.9899 54.4763,19.9899 C53.8123,19.9899 53.1493,19.9429 52.4863,19.8739 L52.4863,17.1599 C53.1033,17.2069 53.7443,17.2999 54.3843,17.2759 C55.5053,17.1599 55.8713,15.9769 55.5053,15.0259 L51.3423,3.7069 L54.8193,3.7069 L57.4963,11.9879 L57.5413,11.9879 L60.1273,3.7069 L63.4903,3.7069 L58.5483,17.2759 Z" id="Fill-7"></path>
                    <path d="M21.3453,8.0415 C21.1393,6.6965 20.2923,5.9775 18.9433,5.9775 C16.8613,5.9775 16.1753,8.1105 16.1753,9.8745 C16.1753,11.5895 16.8383,13.6545 18.8743,13.6545 C20.3843,13.6545 21.2533,12.6805 21.4593,11.2195 L24.5933,11.2195 C24.1823,14.3965 22.0083,16.1365 18.8973,16.1365 C15.3283,16.1365 12.9263,13.5855 12.9263,9.9895 C12.9263,6.2555 15.1223,3.4955 18.9663,3.4955 C21.7573,3.4955 24.3193,4.9795 24.5253,8.0415 L21.3453,8.0415 Z" id="Fill-9"></path>
                    <path d="M1.3229,7.5081 C1.5059,4.4231 4.2279,3.4951 6.8819,3.4951 C9.2389,3.4951 12.0749,4.0291 12.0749,6.9051 L12.0749,13.1441 C12.0749,14.2341 12.2429,15.4341 12.5409,15.9211 L9.2269,15.9211 C9.1119,15.5501 8.9869,15.0461 8.9639,14.6521 C7.9349,15.7421 6.4249,16.1361 4.9829,16.1361 C2.7419,16.1361 0.9569,15.0001 0.9569,12.5411 C0.9569,9.8271 2.9699,9.1781 4.9829,8.8991 C6.9739,8.5981 8.8269,8.6681 8.8269,7.3221 C8.8269,5.9081 7.8659,5.6991 6.7219,5.6991 C5.4869,5.6991 4.6859,6.2091 4.5719,7.5081 L1.3229,7.5081 Z M8.8269,9.9431 C8.2779,10.4301 7.1339,10.4531 6.1269,10.6391 C5.1209,10.8481 4.2059,11.1961 4.2059,12.4021 C4.2059,13.6311 5.1429,13.9331 6.1959,13.9331 C8.7349,13.9331 8.8269,11.8921 8.8269,11.1721 L8.8269,9.9431 Z" id="Fill-11"></path>
                </g>
                <polygon id="Fill-14" fill="#E26159" points="33.8035 47.5371 33.8035 50.6101 26.4485 50.6101 26.4445 54.0881 31.0055 54.0881 31.0055 56.9321 26.4185 56.9321 26.4145 63.8101 23.0005 63.8101 22.9955 47.5371"></polygon>
                <path d="M81.3256,51.605 C79.7796,51.819 78.7056,52.848 78.1916,54.151 L78.1456,54.151 L78.1456,51.605 L75.0576,51.605 L75.0576,63.807 L78.3056,63.807 L78.3056,58.511 C78.3056,56.456 79.0876,54.753 81.3256,54.666 L81.3256,51.605 Z" id="Fill-15" fill="#E26159"></path>
                <polygon id="Fill-17" fill="#E26159" points="60.7047 70.9728 59.5937 69.0068 58.8877 69.8468 58.8877 70.9728 58.1407 70.9728 58.1407 66.8128 58.8877 66.8128 58.8877 68.7318 60.5257 66.8128 61.4337 66.8128 60.1147 68.3848 61.5847 70.9728"></polygon>
                <path d="M62.14,67.499 L62.916,67.499 L62.916,66.742 L62.14,66.742 L62.14,67.499 Z M62.164,70.973 L62.898,70.973 L62.898,67.922 L62.164,67.922 L62.164,70.973 Z" id="Fill-18" fill="#E26159"></path>
                <g id="Group-29" transform="translate(62.480000, 65.890000)" fill="#E26159">
                    <path d="M1.5248,5.1239 C0.9168,5.1239 0.6158,4.7719 0.6158,4.1849 L0.6158,2.6359 L0.0668,2.6359 L0.0668,2.0319 L0.6158,2.0319 L0.6158,1.2569 L1.3398,1.0749 L1.3398,2.0319 L2.0978,2.0319 L2.0978,2.6359 L1.3398,2.6359 L1.3398,4.1209 C1.3398,4.3549 1.4438,4.4549 1.6758,4.4549 C1.8258,4.4549 1.9468,4.4489 2.1438,4.4259 L2.1438,5.0419 C1.9418,5.0949 1.7388,5.1239 1.5248,5.1239" id="Fill-19"></path>
                    <path d="M5.0146,4.6663 C4.8066,4.9303 4.4416,5.1473 3.9846,5.1473 C3.5276,5.1473 3.1456,4.9243 2.9366,4.6663 C2.7116,4.3793 2.6066,3.9973 2.6066,3.5513 C2.6066,3.1053 2.7116,2.7243 2.9366,2.4363 C3.1456,2.1783 3.5276,1.9553 3.9846,1.9553 C4.4416,1.9553 4.8066,2.1723 5.0146,2.4363 C5.1536,2.6183 5.2346,2.8593 5.2456,3.0993 L4.5346,3.0993 C4.5286,2.9883 4.4936,2.8943 4.4476,2.8183 C4.3606,2.6833 4.2046,2.5893 3.9846,2.5893 C3.7876,2.5893 3.6426,2.6713 3.5446,2.7773 C3.3706,2.9703 3.3416,3.2643 3.3416,3.5513 C3.3416,3.8393 3.3706,4.1263 3.5446,4.3203 C3.6426,4.4253 3.7876,4.5133 3.9846,4.5133 C4.2046,4.5133 4.3606,4.4203 4.4476,4.2853 C4.4936,4.2083 4.5286,4.1143 4.5346,4.0033 L5.2456,4.0033 C5.2346,4.2443 5.1536,4.4843 5.0146,4.6663" id="Fill-21"></path>
                    <path d="M7.8158,5.0828 L7.8158,3.1998 C7.8158,2.8478 7.6998,2.6298 7.3178,2.6298 C6.8838,2.6298 6.6988,3.0998 6.6988,3.4748 L6.6988,5.0828 L5.9758,5.0828 L5.9758,0.8468 L6.6988,0.8468 L6.6988,2.3548 C6.8728,2.0968 7.2078,1.9558 7.5208,1.9558 C8.1628,1.9558 8.5388,2.4188 8.5388,3.0468 L8.5388,5.0828 L7.8158,5.0828 Z" id="Fill-23"></path>
                    <path d="M12.0521,3.7861 L10.0381,3.7861 C10.0321,4.0211 10.1131,4.2441 10.2581,4.3851 C10.3621,4.4841 10.5071,4.5721 10.7041,4.5721 C10.9121,4.5721 11.0391,4.5311 11.1431,4.4261 C11.2071,4.3611 11.2591,4.2791 11.2881,4.1671 L11.9831,4.1671 C11.9651,4.3491 11.8441,4.5901 11.7281,4.7311 C11.4731,5.0361 11.0971,5.1591 10.7151,5.1591 C10.3041,5.1591 10.0031,5.0121 9.7661,4.7831 C9.4651,4.4901 9.3031,4.0621 9.3031,3.5631 C9.3031,3.0761 9.4481,2.6421 9.7371,2.3431 C9.9631,2.1081 10.2871,1.9551 10.6981,1.9551 C11.1431,1.9551 11.5491,2.1371 11.7971,2.5191 C12.0171,2.8531 12.0691,3.1991 12.0581,3.5811 C12.0581,3.5811 12.0521,3.7211 12.0521,3.7861 M11.1491,2.7181 C11.0511,2.6131 10.9001,2.5421 10.6921,2.5421 C10.4721,2.5421 10.2931,2.6361 10.1881,2.7771 C10.0841,2.9121 10.0381,3.0531 10.0321,3.2521 L11.3341,3.2521 C11.3291,3.0231 11.2651,2.8471 11.1491,2.7181" id="Fill-25"></path>
                    <path d="M14.6913,5.0828 L14.6913,3.2108 C14.6913,2.8528 14.5753,2.6358 14.1933,2.6358 C13.9393,2.6358 13.7713,2.8008 13.6723,3.0238 C13.5683,3.2638 13.5743,3.5808 13.5743,3.8388 L13.5743,5.0828 L12.8513,5.0828 L12.8513,2.0318 L13.4583,2.0318 L13.5103,2.4248 C13.6903,2.1018 14.0493,1.9558 14.3963,1.9558 C15.0383,1.9558 15.4143,2.4128 15.4143,3.0468 L15.4143,5.0828 L14.6913,5.0828 Z" id="Fill-27"></path>
                </g>
            </g>
        </g>
    </g>
</svg>